<mxfile host="app.diagrams.net" modified="2022-08-05T09:59:15.432Z" agent="5.0 (X11; Linux x86_64) AppleWebKit/537.36 (KHTML, like Gecko) Chrome/103.0.0.0 Safari/537.36" etag="j_xDYcig_Z73nHA13-Ep" version="20.2.2" type="github">
  <diagram id="C5RBs43oDa-KdzZeNtuy" name="Page-1">
    <mxGraphModel dx="1418" dy="648" grid="1" gridSize="10" guides="1" tooltips="1" connect="1" arrows="1" fold="1" page="1" pageScale="1" pageWidth="827" pageHeight="1169" math="0" shadow="0">
      <root>
        <mxCell id="WIyWlLk6GJQsqaUBKTNV-0" />
        <mxCell id="WIyWlLk6GJQsqaUBKTNV-1" parent="WIyWlLk6GJQsqaUBKTNV-0" />
        <mxCell id="WIyWlLk6GJQsqaUBKTNV-3" value="NEW" style="rounded=1;whiteSpace=wrap;html=1;fontSize=12;glass=0;strokeWidth=1;shadow=0;" parent="WIyWlLk6GJQsqaUBKTNV-1" vertex="1">
          <mxGeometry x="90" y="50" width="120" height="40" as="geometry" />
        </mxCell>
        <mxCell id="WIyWlLk6GJQsqaUBKTNV-4" value="Yes&lt;br&gt;Who will work on that ?" style="rounded=0;html=1;jettySize=auto;orthogonalLoop=1;fontSize=11;endArrow=classic;endFill=1;endSize=8;strokeWidth=1;shadow=0;labelBackgroundColor=default;edgeStyle=orthogonalEdgeStyle;entryX=0.5;entryY=0;entryDx=0;entryDy=0;exitX=0.5;exitY=1;exitDx=0;exitDy=0;labelPosition=center;verticalLabelPosition=middle;align=center;verticalAlign=middle;" parent="WIyWlLk6GJQsqaUBKTNV-1" source="WIyWlLk6GJQsqaUBKTNV-3" target="LvpwblQ4MQLegynTFEqt-0" edge="1">
          <mxGeometry relative="1" as="geometry">
            <mxPoint as="offset" />
            <mxPoint x="150" y="210" as="sourcePoint" />
            <mxPoint x="200" y="380" as="targetPoint" />
          </mxGeometry>
        </mxCell>
        <mxCell id="LvpwblQ4MQLegynTFEqt-4" style="edgeStyle=orthogonalEdgeStyle;rounded=0;orthogonalLoop=1;jettySize=auto;html=1;exitX=0.5;exitY=0;exitDx=0;exitDy=0;entryX=1;entryY=0.5;entryDx=0;entryDy=0;" edge="1" parent="WIyWlLk6GJQsqaUBKTNV-1" source="WIyWlLk6GJQsqaUBKTNV-7" target="LvpwblQ4MQLegynTFEqt-0">
          <mxGeometry relative="1" as="geometry" />
        </mxCell>
        <mxCell id="WIyWlLk6GJQsqaUBKTNV-7" value="FEEDBACK" style="rounded=1;whiteSpace=wrap;html=1;fontSize=12;glass=0;strokeWidth=1;shadow=0;" parent="WIyWlLk6GJQsqaUBKTNV-1" vertex="1">
          <mxGeometry x="220" y="190" width="120" height="40" as="geometry" />
        </mxCell>
        <mxCell id="LvpwblQ4MQLegynTFEqt-7" value="Start Work" style="edgeStyle=orthogonalEdgeStyle;rounded=0;orthogonalLoop=1;jettySize=auto;html=1;" edge="1" parent="WIyWlLk6GJQsqaUBKTNV-1" source="WIyWlLk6GJQsqaUBKTNV-12" target="LvpwblQ4MQLegynTFEqt-6">
          <mxGeometry relative="1" as="geometry" />
        </mxCell>
        <mxCell id="WIyWlLk6GJQsqaUBKTNV-12" value="ACKNOWLEDGED" style="rounded=1;whiteSpace=wrap;html=1;fontSize=12;glass=0;strokeWidth=1;shadow=0;" parent="WIyWlLk6GJQsqaUBKTNV-1" vertex="1">
          <mxGeometry x="90" y="340" width="120" height="40" as="geometry" />
        </mxCell>
        <mxCell id="LvpwblQ4MQLegynTFEqt-2" style="edgeStyle=orthogonalEdgeStyle;rounded=0;orthogonalLoop=1;jettySize=auto;html=1;exitX=0.5;exitY=1;exitDx=0;exitDy=0;entryX=0.5;entryY=0;entryDx=0;entryDy=0;" edge="1" parent="WIyWlLk6GJQsqaUBKTNV-1" source="LvpwblQ4MQLegynTFEqt-0" target="LvpwblQ4MQLegynTFEqt-1">
          <mxGeometry relative="1" as="geometry" />
        </mxCell>
        <mxCell id="LvpwblQ4MQLegynTFEqt-0" value="ASSIGNED" style="rounded=1;whiteSpace=wrap;html=1;fontSize=12;glass=0;strokeWidth=1;shadow=0;" vertex="1" parent="WIyWlLk6GJQsqaUBKTNV-1">
          <mxGeometry x="90" y="150" width="120" height="40" as="geometry" />
        </mxCell>
        <mxCell id="LvpwblQ4MQLegynTFEqt-3" value="NO" style="edgeStyle=orthogonalEdgeStyle;rounded=0;orthogonalLoop=1;jettySize=auto;html=1;entryX=0.5;entryY=1;entryDx=0;entryDy=0;" edge="1" parent="WIyWlLk6GJQsqaUBKTNV-1" source="LvpwblQ4MQLegynTFEqt-1" target="WIyWlLk6GJQsqaUBKTNV-7">
          <mxGeometry relative="1" as="geometry" />
        </mxCell>
        <mxCell id="LvpwblQ4MQLegynTFEqt-5" value="YES" style="edgeStyle=orthogonalEdgeStyle;rounded=0;orthogonalLoop=1;jettySize=auto;html=1;exitX=0.5;exitY=1;exitDx=0;exitDy=0;entryX=0.5;entryY=0;entryDx=0;entryDy=0;labelPosition=center;verticalLabelPosition=middle;align=center;verticalAlign=middle;" edge="1" parent="WIyWlLk6GJQsqaUBKTNV-1" source="LvpwblQ4MQLegynTFEqt-1" target="WIyWlLk6GJQsqaUBKTNV-12">
          <mxGeometry relative="1" as="geometry" />
        </mxCell>
        <mxCell id="LvpwblQ4MQLegynTFEqt-1" value="Enough Information ?" style="rhombus;whiteSpace=wrap;html=1;shadow=0;fontFamily=Helvetica;fontSize=12;align=center;strokeWidth=1;spacing=6;spacingTop=-4;" vertex="1" parent="WIyWlLk6GJQsqaUBKTNV-1">
          <mxGeometry x="100" y="220" width="100" height="80" as="geometry" />
        </mxCell>
        <mxCell id="LvpwblQ4MQLegynTFEqt-9" value="FINISH" style="edgeStyle=orthogonalEdgeStyle;rounded=0;orthogonalLoop=1;jettySize=auto;html=1;" edge="1" parent="WIyWlLk6GJQsqaUBKTNV-1" source="LvpwblQ4MQLegynTFEqt-6" target="LvpwblQ4MQLegynTFEqt-8">
          <mxGeometry relative="1" as="geometry" />
        </mxCell>
        <mxCell id="LvpwblQ4MQLegynTFEqt-6" value="CONFIRMED" style="rounded=1;whiteSpace=wrap;html=1;fontSize=12;glass=0;strokeWidth=1;shadow=0;" vertex="1" parent="WIyWlLk6GJQsqaUBKTNV-1">
          <mxGeometry x="90" y="430" width="120" height="40" as="geometry" />
        </mxCell>
        <mxCell id="LvpwblQ4MQLegynTFEqt-11" value="Tested by Reporter / Tester" style="edgeStyle=orthogonalEdgeStyle;rounded=0;orthogonalLoop=1;jettySize=auto;html=1;" edge="1" parent="WIyWlLk6GJQsqaUBKTNV-1" source="LvpwblQ4MQLegynTFEqt-8" target="LvpwblQ4MQLegynTFEqt-10">
          <mxGeometry relative="1" as="geometry" />
        </mxCell>
        <mxCell id="LvpwblQ4MQLegynTFEqt-8" value="RESOLVED" style="rounded=1;whiteSpace=wrap;html=1;fontSize=12;glass=0;strokeWidth=1;shadow=0;" vertex="1" parent="WIyWlLk6GJQsqaUBKTNV-1">
          <mxGeometry x="90" y="510" width="120" height="40" as="geometry" />
        </mxCell>
        <mxCell id="LvpwblQ4MQLegynTFEqt-10" value="CLOSED" style="rounded=1;whiteSpace=wrap;html=1;fontSize=12;glass=0;strokeWidth=1;shadow=0;" vertex="1" parent="WIyWlLk6GJQsqaUBKTNV-1">
          <mxGeometry x="90" y="590" width="120" height="40" as="geometry" />
        </mxCell>
      </root>
    </mxGraphModel>
  </diagram>
</mxfile>
